<svg width="24" height="24" viewBox="0 0 24 24" fill="none" xmlns="http://www.w3.org/2000/svg">
<path d="M10.646 12.7738C8.70695 13.1698 6.17895 13.0908 4.41195 12.1728C1.95795 10.9098 2.87495 7.51285 5.83495 7.19085C8.08895 6.96685 9.64895 6.83685 11.485 7.40485C12.32 7.66085 13.415 7.97385 12.84 10.6858C12.649 11.7528 11.77 12.5898 10.646 12.7738Z" stroke="white" stroke-width="2" stroke-linecap="round" stroke-linejoin="round"/>
<path d="M5.84027 7.13166C5.92361 6.56633 6.05427 6.01266 6.23227 5.47066C6.68827 4.53466 7.32727 3.40266 10.2173 3.01466C11.1737 2.98166 12.1312 3.00837 13.0843 3.09466C14.8603 3.23466 15.7273 4.32866 16.3713 6.46266C16.7103 7.61966 16.8313 8.80466 17.0003 9.99966M17.0003 9.99966V20.9997M17.0003 9.99966C17.9913 10.1627 19.1053 10.3827 20.0693 10.6697C20.3243 10.7997 20.5893 10.9447 20.6033 11.1747C20.8673 14.6087 21.1733 18.6227 20.8813 20.9997H17.0003M17.0003 20.9997L4.29627 20.9807C3.74427 18.5947 4.03427 15.0867 4.50027 12.4997" stroke="white" stroke-width="2" stroke-linecap="round" stroke-linejoin="round"/>
</svg>
