<svg width="96" height="175" viewBox="0 0 96 175" fill="none" xmlns="http://www.w3.org/2000/svg">
<g clip-path="url(#clip0_716_1690)">
<path d="M94.6176 142.389C94.4563 142.158 94.2848 141.94 94.1032 141.734C91.4878 137.764 87.0338 131.476 83.3242 126.362C83.5341 126.166 83.7393 125.965 83.9397 125.758C84.0765 125.617 84.2212 125.449 84.2109 125.248C84.1905 124.859 83.6701 124.619 83.3612 124.71C83.0303 124.808 82.7614 125.03 82.5649 125.316C82.2127 124.833 81.8708 124.364 81.539 123.912C81.6247 123.563 81.3614 123.085 81.2041 122.796C81.0823 122.572 80.65 122.054 80.1405 121.604C80.5595 121.541 80.9731 121.447 81.3794 121.325C81.686 121.232 82.0005 121.113 82.2174 120.868C82.4548 120.6 82.5224 120.097 82.2678 119.807C82.0295 119.536 81.4809 119.536 81.1546 119.535C80.9486 119.535 80.4628 119.626 79.944 119.796C80.091 119.5 80.2239 119.198 80.3402 118.89C80.4574 118.581 80.5603 118.248 80.5084 117.92C80.4495 117.56 80.1091 117.197 79.7341 117.228C79.3812 117.26 79.0463 117.712 78.845 117.981C78.6956 118.181 78.4072 118.781 78.2028 119.433C78.103 119.302 78.0071 119.178 77.9182 119.063C77.7728 118.876 77.6391 118.703 77.5165 118.547C77.3146 118.309 77.0968 118.083 76.8641 117.872L76.8649 117.822C77.0739 116.766 76.372 115.705 76.346 114.535C76.3099 112.899 76.4034 111.181 76.2164 109.557C75.8351 106.266 72.5484 104.732 70.9346 101.876C68.3986 97.3889 71.4219 91.6779 69.8788 87.0277C68.8019 83.7817 66.3524 82.2481 63.3912 80.6016C60.7043 79.1068 59.4183 78.1659 56.4796 78.741C56.1783 78.6869 54.7109 79.0045 54.4069 79.0797C49.3574 80.3205 46.9765 83.276 44.557 88.0121C43.6524 89.7821 43.2731 91.4474 43.6644 93.7043C43.3935 94.7663 43.185 96.4187 42.7715 97.4278C42.2716 98.6474 41.2914 99.3154 41.2312 100.641C41.1689 102.017 42.6527 103.358 43.5836 104.361C42.8829 106.063 41.647 108.097 41.3126 109.941C40.9165 112.123 39.9046 113.873 40.177 116.127C40.3693 117.721 39.9357 119.233 41.0046 120.392C37.8847 123.761 33.325 128.81 29.5166 133.168C23.3622 127.519 13.778 119.343 12.3763 119.322C12.2009 119.445 11.9936 119.605 11.7637 119.79C11.7161 119.698 11.6672 119.605 11.6169 119.515C11.5889 119.464 11.5604 119.413 11.5318 119.364L11.5233 119.344C11.2076 118.602 10.8028 117.902 10.5102 117.148C10.4454 116.982 10.3837 116.838 10.3496 116.661C10.3113 116.461 10.2694 116.262 10.2243 116.063C10.1344 115.666 10.0315 115.272 9.91563 114.883C9.82053 114.563 9.75295 114.026 9.38878 113.914C8.92318 113.773 8.59162 114.441 8.43322 114.783C8.25813 115.162 8.15197 115.576 8.12388 115.995C8.10425 116.296 8.0739 116.594 8.06747 116.895L8.01219 116.934C6.8917 115.488 5.52527 113.751 4.60649 112.711C4.45115 112.535 4.28993 112.357 4.08698 112.245C3.88402 112.133 3.62725 112.098 3.427 112.216C3.18749 112.355 3.09081 112.677 3.1277 112.96C3.16504 113.243 3.30945 113.497 3.45622 113.739C3.96288 114.574 4.77482 115.695 5.60605 116.781C4.40252 115.577 3.03395 114.232 2.09678 113.405C1.92147 113.25 1.74062 113.093 1.52605 113.01C1.31102 112.925 1.05211 112.924 0.867313 113.065C0.646531 113.234 0.588204 113.566 0.658827 113.842C0.72945 114.119 0.903301 114.352 1.07738 114.573C1.61596 115.256 2.4244 116.134 3.27165 117.007C2.60378 116.392 1.9693 115.824 1.46027 115.399C1.28123 115.249 1.09678 115.098 0.879271 115.02C0.662438 114.942 0.403976 114.948 0.222793 115.095C0.00629883 115.27 -0.0431154 115.603 0.0345022 115.877C0.111894 116.151 0.29161 116.379 0.471552 116.596C1.08448 117.332 2.03079 118.296 2.99559 119.228C2.54151 118.824 2.11743 118.458 1.7563 118.162C1.57636 118.014 1.39022 117.865 1.17259 117.788C0.954858 117.712 0.696621 117.72 0.51634 117.869C0.301425 118.046 0.254719 118.38 0.33448 118.652C0.414693 118.927 0.596554 119.153 0.778301 119.368C1.45565 120.167 2.53508 121.235 3.60017 122.236L3.60728 122.243C4.14835 122.75 4.68479 123.24 5.16347 123.67L5.30968 123.804L6.46187 125.146C6.37794 125.268 6.30709 125.382 6.24989 125.486C6.31995 127.256 17.9087 141.834 22.8841 147.034C23.1319 147.335 23.4012 147.615 23.6896 147.87C25.3647 149.352 27.6685 150.017 29.9729 149.456C30.773 149.262 31.51 148.935 32.1683 148.505C32.3772 148.39 32.5783 148.261 32.7711 148.123C33.0066 147.953 33.2299 147.768 33.439 147.566C35.8618 145.529 39.161 142.441 42.4319 139.29C42.1564 146.081 41.9169 152.831 41.7312 156.864L43.666 156.841C41.8954 175.62 38.7396 218.791 39.3365 226.539L43.1586 226.496L43.5449 226.492L45.7037 226.466C46.0144 231.569 46.4473 238.908 46.6236 241.642C45.9499 241.827 45.7561 242.617 45.3014 242.824C43.6178 243.586 42.9225 244.967 41.1215 245.435C40.8645 245.501 39.8549 246.087 39.5917 246.118C38.2551 246.277 37.6191 245.168 37.1453 246.756C36.6399 248.451 37.2254 249.672 38.3687 250.902C39.9359 252.587 53.4064 251.71 54.4768 250.582C56.0215 248.956 54.775 247.246 54.5791 245.435C54.4987 244.693 54.7275 244.258 54.5791 243.567C54.4443 242.945 54.9927 242.216 54.6483 242.161C54.8211 239.935 55.2855 232.072 55.6435 226.354L57.4798 226.333L57.8657 226.329L65.6442 226.24C67.3571 231.012 69.7342 237.67 70.6469 240.18C70.0526 240.561 69.5212 240.988 69.143 241.323C67.7454 242.563 67.5512 244.442 65.9586 245.435C65.7314 245.576 65.2212 246.328 64.9783 246.438C63.7425 246.994 63.1539 246.368 63.1428 248.032C63.1317 249.806 63.9493 250.709 65.3863 251.539C67.3555 252.677 79.6634 247.521 80.3732 246.118C81.3975 244.095 79.944 243.541 79.2515 241.867C78.9684 241.182 79.1784 240.039 78.8442 239.422C78.5417 238.867 78.8145 238.194 78.4692 238.246C78.0991 236.472 76.8759 231.079 75.7588 226.125L81.0555 226.065C81.4234 219.289 78.7107 185.57 76.6998 164.654C76.8916 165.162 77.1337 165.642 77.4725 166.056C78.7963 167.676 81.1114 167.804 83.1528 167.808C85.1401 167.811 87.2515 167.778 88.9259 166.661C90.7513 165.443 91.0398 163.484 90.3496 161.563C89.51 159.228 88.841 156.74 88.1988 154.265C89.8676 154.415 91.5931 153.962 93.0518 152.852C96.2557 150.414 96.9574 145.729 94.6176 142.389Z" fill="#F89E87"/>
<path d="M77.0509 109.556C76.6705 106.266 73.3955 104.292 71.7816 101.436C69.2465 96.9489 71.4217 91.6869 69.8785 87.0368C68.8016 83.791 66.812 80.7236 63.8508 79.0771C61.1639 77.583 58.4141 77.3503 55.4758 77.9255C55.1748 77.8724 54.8408 77.9314 54.5368 78.007C49.4871 79.2484 45.5302 82.7587 43.1109 87.4951C42.2065 89.2644 41.9982 91.6822 42.3898 93.9394C42.1189 95.0012 41.818 96.0501 41.4044 97.0599C40.9048 98.2801 40.2332 99.4754 40.1733 100.801C40.111 102.178 40.7401 103.483 41.6712 104.486C40.9708 106.188 40.2671 107.76 39.9326 109.604C39.5365 111.785 38.7207 113.956 38.993 116.211C39.1855 117.804 39.9354 119.243 41.0044 120.4C42.0842 119.233 42.9917 118.268 43.6359 117.602C43.7998 117.433 43.9515 117.277 44.0894 117.136C44.5191 116.732 44.9987 116.379 45.5201 116.088C48.0843 114.255 50.9813 113.109 53.5962 112.261C53.9874 112.135 54.3729 112.014 54.75 111.899C54.7333 110.367 54.7171 108.655 54.7004 106.887C52.8317 106.77 51.0334 106.209 49.5706 105.248C47.5151 103.896 46.5435 101.579 45.8575 98.5647C45.6413 97.6151 45.5059 96.656 45.4467 95.6993C45.6982 95.3886 45.9091 95.15 46.289 94.9233C46.7874 94.6256 47.2673 94.3008 47.7214 93.9335C48.8726 93.0016 50.0008 91.7968 50.6051 90.4078C51.0989 89.2715 51.3317 87.592 52.2522 86.7392C52.3413 86.6565 52.4377 86.5833 52.539 86.5195C52.9067 86.2868 53.3448 86.1769 53.7725 86.2183C54.4293 86.2809 54.7941 86.5667 55.2757 87.0073C55.7571 86.6116 56.4514 86.647 57.0161 86.94C57.1843 87.0274 57.342 87.1384 57.4779 87.2671C58.4606 88.1943 58.5493 89.6318 59.0862 90.8164C59.6609 92.0838 60.531 93.1976 61.5546 94.1024C62.2912 94.752 63.1064 95.3001 63.9616 95.7642C64.4805 95.2327 65.1281 94.8477 65.8443 94.7532C69.0822 94.3268 70.0114 99.3986 68.1153 101.403C67.1555 102.416 65.7068 102.92 64.3602 102.37L64.353 102.367C64.2674 105.414 64.3382 109.167 64.5504 111.745C65.0127 111.874 65.4882 112.01 65.9725 112.156C68.9816 113.062 72.3524 114.355 75.1886 116.631C75.4048 116.296 75.6988 116.076 76.0753 116.151C76.7192 116.276 76.8701 117.135 76.8646 117.83C77.0737 116.774 76.7089 115.607 76.6829 114.438C76.646 112.801 77.2388 111.18 77.0509 109.556Z" fill="black"/>
<path d="M94.6174 142.385C94.4559 142.154 94.2851 141.936 94.1032 141.73C91.4876 137.761 87.0342 131.473 83.3243 126.358C83.534 126.162 83.7391 125.961 83.9396 125.755C84.0761 125.614 84.2209 125.445 84.2107 125.244C84.1902 124.854 83.6705 124.615 83.3614 124.707C83.03 124.805 82.7618 125.027 82.565 125.313C82.2123 124.83 81.8707 124.361 81.5394 123.908C81.6248 123.559 81.3611 123.081 81.2043 122.792C81.0827 122.569 80.6502 122.05 80.1406 121.6C80.5592 121.537 80.9732 121.443 81.3797 121.321C81.686 121.228 82.0007 121.109 82.2169 120.865C82.4545 120.597 82.5223 120.094 82.268 119.804C82.0294 119.532 81.4809 119.532 81.1542 119.531C80.949 119.531 80.4627 119.623 79.9438 119.792C80.0914 119.498 80.2241 119.195 80.3402 118.886C80.4571 118.576 80.5601 118.245 80.5082 117.917C80.4497 117.557 80.109 117.193 79.7341 117.226C79.3813 117.256 79.0463 117.708 78.8449 117.977C78.6954 118.177 78.4068 118.778 78.2026 119.43C78.1032 119.298 78.0067 119.174 77.9185 119.059C77.7728 118.872 77.6391 118.699 77.5166 118.544C77.3143 118.305 77.0971 118.079 76.8641 117.868L76.865 117.818C76.8715 117.122 76.7193 116.264 76.0761 116.138C75.6992 116.065 75.405 116.284 75.1888 116.62C72.3522 114.343 68.9819 113.05 65.9728 112.144C64.4045 113.185 62.5981 113.839 60.7452 114.012C58.8201 114.191 56.8539 113.849 55.0796 113.051C54.9732 113.033 54.8678 113.015 54.7622 112.995L54.761 112.902C54.3618 112.708 53.9721 112.49 53.5966 112.248C50.9816 113.097 48.0847 114.244 45.5204 116.076C44.9989 116.366 44.5193 116.72 44.0898 117.124C43.9519 117.265 43.8002 117.421 43.6362 117.59C42.9919 118.256 42.0845 119.222 41.0046 120.388C37.8848 123.758 33.3251 128.807 29.5166 133.164C23.3623 127.515 13.7781 119.34 12.3764 119.319C12.201 119.442 11.9938 119.601 11.7638 119.787C10.164 121.082 7.44726 123.705 6.4619 125.143C6.378 125.265 6.30718 125.378 6.25 125.481C6.32008 127.252 17.9088 141.831 22.8842 147.03C23.1292 147.286 23.3501 147.517 23.5432 147.715C23.592 147.765 23.6405 147.816 23.6897 147.866C25.3648 149.348 27.6686 150.014 29.9729 149.454C30.7731 149.259 31.5101 148.932 32.1684 148.502C32.3773 148.385 32.5783 148.258 32.7712 148.119C33.0067 147.95 33.2299 147.763 33.439 147.563C35.8618 145.525 39.1611 142.438 42.4319 139.287C42.1564 146.078 41.9169 152.827 41.7312 156.861L43.666 156.837C41.8955 175.616 39.9735 217.716 40.5704 225.464L43.1587 226.492L43.545 226.488L45.7037 226.463L47.512 226.442L47.898 226.438L55.6434 226.35L57.4798 226.329L57.8657 226.325L65.6442 226.236L67.9317 226.21L68.3176 226.206L75.3465 226.127L75.7317 226.122H75.7587L79.9893 224.922C80.3569 218.147 78.7103 185.566 76.6998 164.651C76.892 165.158 77.7125 165.137 78.0522 165.551C79.3748 167.17 80.9444 166.906 82.9864 166.91C84.9736 166.913 86.7232 166.667 88.3977 165.551C90.2234 164.332 90.1965 163.665 89.5059 161.745C88.6669 159.408 88.8414 156.737 88.1991 154.262C89.8679 154.412 91.5934 153.959 93.0516 152.848C96.2557 150.411 96.9574 145.725 94.6174 142.385Z" fill="#3F0F42"/>
<path d="M76.6999 164.656C76.5206 164.182 76.3862 163.683 76.2596 163.191C75.6874 160.971 75.189 158.73 74.7645 156.474L71.5596 156.513L71.1744 156.517L66.3431 156.574L65.9587 156.579L59.3704 156.657L58.9852 156.662L51.6849 156.748L51.2998 156.752L48.1714 156.79L47.7854 156.794L43.6661 156.843C41.8956 175.622 38.7398 218.793 39.3367 226.541L43.1588 226.498L43.5451 226.493L45.7038 226.468L47.5121 226.448L47.8981 226.443L55.6436 226.356L57.4799 226.335L57.8658 226.33L65.6442 226.242L67.9318 226.216L68.3177 226.212L75.347 226.132L75.7314 226.127H75.7589L81.0556 226.067C81.4235 219.291 78.7107 185.572 76.6999 164.656Z" fill="#070812"/>
<path d="M90.3493 161.562C89.5097 159.226 88.8408 156.739 88.1985 154.264C87.6813 154.217 87.1695 154.112 86.6727 153.95C86.3119 153.833 85.959 153.686 85.6186 153.51C82.7289 152.29 77.9597 149.907 73.4766 147.49C73.5379 148.122 73.6055 148.755 73.6809 149.387C73.9608 151.761 74.3224 154.124 74.7642 156.471C75.1887 158.727 75.6871 160.968 76.2593 163.188C76.3859 163.68 76.5203 164.179 76.6995 164.653C76.8914 165.16 77.1335 165.641 77.4723 166.054C78.7961 167.675 81.1111 167.803 83.1526 167.806C85.1398 167.81 87.2513 167.777 88.9257 166.66C90.751 165.441 91.0395 163.483 90.3493 161.562Z" fill="#CF8D6E"/>
<path d="M80.6296 133.645C80.5274 133.644 80.4251 133.643 80.321 133.642C80.34 133.44 80.3545 133.209 80.3608 132.961C80.5636 133.198 80.7736 133.427 80.9926 133.646L81.0007 133.654C80.8785 133.648 80.7555 133.645 80.6296 133.645ZM77.927 133.027C77.7125 132.847 77.5161 132.613 77.3414 132.309C77.5749 132.191 77.8166 132.06 78.0519 131.917C77.994 132.285 77.9523 132.656 77.927 133.027ZM76.658 129.912C76.6417 129.763 76.63 129.613 76.6218 129.463C76.7594 129.572 76.9015 129.682 77.0481 129.784C76.9169 129.825 76.7865 129.867 76.658 129.912ZM73.3209 129.592L73.2955 129.546C73.186 129.346 72.7986 128.881 72.3416 128.478C72.7081 128.422 73.0729 128.34 73.4295 128.233C73.3906 128.686 73.3535 129.139 73.3209 129.592ZM76.7838 120.954C76.8318 120.99 76.8798 121.025 76.9286 121.059C76.8789 121.075 76.8282 121.091 76.7793 121.107C76.7811 121.056 76.782 121.005 76.7838 120.954ZM84.1098 128.289C83.7849 127.919 83.2617 127.988 82.8173 127.987C82.5367 127.986 81.5972 128.197 80.8912 128.427C81.0903 128.026 81.2994 127.21 81.4578 126.79C81.6171 126.369 81.7013 126.026 81.6298 125.58C81.551 125.089 81.4017 124.778 80.8912 124.823C80.4115 124.865 80.0558 125.434 79.7825 125.8C79.5372 126.128 78.9778 127.418 78.7162 128.498C78.2392 127.912 77.5532 127.182 76.983 126.693C76.8526 126.581 76.7893 126.293 76.6463 126.195L76.7268 123.106C77.0137 122.985 77.4346 122.582 77.7505 122.389C77.6763 122.87 77.6745 123.551 77.6708 124.039C77.6699 124.371 77.7007 124.647 77.8636 124.933C78.0419 125.247 78.3035 125.366 78.642 125.195C78.9606 125.033 79.0547 124.673 79.1489 124.346C79.1969 124.179 79.2702 123.597 79.281 123.159C79.4295 123.332 79.7327 123.685 79.8929 123.847C80.1219 124.077 80.369 124.168 80.6794 124.243C81.0216 124.324 81.4171 124.32 81.5311 123.946L81.5384 123.919C81.6244 123.57 81.361 123.092 81.2035 122.803C81.0822 122.579 80.6495 122.061 80.14 121.611C80.559 121.548 80.9727 121.455 81.3791 121.332C81.6859 121.239 82 121.12 82.2172 120.876C82.4543 120.608 82.5222 120.105 82.2679 119.815C82.0289 119.543 81.4804 119.543 81.1546 119.542C80.9482 119.542 80.4622 119.635 79.9436 119.803C80.0911 119.508 80.2232 119.206 80.34 118.898C80.4568 118.587 80.5599 118.256 80.5084 117.928C80.4495 117.567 80.1092 117.204 79.7336 117.236C79.3806 117.267 79.0457 117.719 78.8448 117.988C78.6954 118.188 78.4067 118.788 78.2021 119.44C78.1605 119.574 78.1234 119.71 78.0908 119.845C77.7405 119.415 77.3531 119.017 76.935 118.658L76.8454 118.584C76.8517 118.36 76.8571 118.136 76.8635 117.914V117.88L76.8644 117.829C76.8707 117.133 76.7196 116.275 76.0751 116.149C75.6986 116.076 75.4044 116.295 75.189 116.63C74.9799 116.957 74.8433 117.392 74.779 117.775C74.4885 119.481 74.2305 121.19 74.007 122.902C73.9671 122.991 73.9427 123.089 73.9228 123.183C73.9011 123.287 73.8893 123.392 73.8848 123.497L73.8522 123.463C73.6802 123.298 73.4494 123.115 73.2032 123.136C73.0747 123.147 72.9597 123.229 72.9127 123.354C72.862 123.489 72.9054 123.634 72.9706 123.755C73.062 123.926 73.1824 124.081 73.3245 124.209C73.253 124.21 73.1815 124.214 73.1109 124.22C72.8493 124.246 72.5325 124.428 72.6285 124.752C72.7063 125.01 72.9797 125.073 73.2168 125.077C73.1507 125.218 73.129 125.378 73.1942 125.532C73.2765 125.722 73.4639 125.838 73.6585 125.855C73.6304 126.114 73.6042 126.372 73.5788 126.63C73.4594 126.623 73.3851 126.776 73.291 126.776C73.1064 126.775 72.385 126.955 71.9189 127.107C72.051 126.842 72.2492 126.283 72.3542 126.006C72.4583 125.728 72.5271 125.488 72.48 125.195C72.4285 124.871 72.2818 124.698 71.946 124.727C71.6292 124.754 71.479 125.063 71.2989 125.304C71.1369 125.521 70.7431 126.475 70.5721 127.187C70.2571 126.802 69.7738 126.355 69.399 126.034C69.1782 125.844 68.9565 125.678 68.6735 125.635C68.363 125.587 68.183 125.663 68.1059 126.006C68.0344 126.327 68.2183 126.509 68.3834 126.762C68.5178 126.969 69.1145 127.648 69.6498 128.028C69.2418 128.154 68.7804 128.414 68.396 128.606C68.1381 128.733 67.8945 128.783 67.7365 129.031C67.5628 129.304 67.5636 129.611 67.8292 129.83C68.0777 130.034 68.4314 129.878 68.7214 129.83C68.9557 129.791 69.7475 129.439 70.2996 129.1C70.2336 129.533 70.2372 130.272 70.2354 130.71C70.2336 131.008 70.1539 131.292 70.2996 131.549C70.4607 131.83 70.7612 131.826 71.0654 131.672C71.3514 131.528 71.3396 131.177 71.4247 130.885C71.4681 130.735 71.5614 130.18 71.5713 129.788C71.7044 129.944 72.051 130.275 72.1958 130.42C72.4031 130.627 72.5769 130.77 72.8557 130.837C72.9987 130.871 73.0819 131.019 73.2277 130.954C73.2159 131.132 73.205 131.309 73.1951 131.487C72.8348 131.531 72.4746 131.681 72.1823 131.913C71.8618 132.168 71.6247 132.523 71.565 132.943C71.5532 133.024 71.5623 133.116 71.5885 133.207C71.9261 133.287 72.2646 133.369 72.6013 133.453L72.6366 133.405C72.8086 133.17 72.9733 132.93 73.1326 132.688C73.119 132.984 73.1055 133.28 73.0937 133.577C73.3245 133.636 73.5553 133.696 73.7843 133.757C74.2613 133.883 74.7356 134.014 75.2089 134.149C75.6316 134.269 76.0525 134.394 76.4734 134.52C76.9974 134.679 77.5206 134.843 78.0428 135.012C78.5778 135.186 79.1109 135.365 79.6431 135.55C81.0306 136.031 82.4073 136.55 83.7695 137.105C83.6364 136.587 83.5015 136.069 83.3685 135.551C83.221 134.981 83.0092 134.582 82.7494 134.303C83.0074 134.194 83.0227 133.931 83.1069 133.654C83.2535 133.176 82.9947 132.866 82.7738 132.462L82.3421 132.09C82.2706 132.009 82.1566 131.748 82.1873 131.639C82.1982 131.601 82.381 131.563 82.4046 131.535C82.1403 131.227 81.7954 130.868 81.4198 130.536C81.9891 130.45 82.4887 130.192 83.0418 130.024C83.4581 129.898 83.7885 129.686 84.0835 129.354C84.4076 128.99 84.4564 128.683 84.1098 128.289Z" fill="#CF8D6E"/>
<path d="M73.2181 125.07C73.1514 125.21 73.1297 125.37 73.1947 125.524C73.2771 125.715 73.4643 125.829 73.6593 125.847C73.6975 125.85 73.7347 125.85 73.772 125.847C73.928 125.829 74.0624 125.745 74.1647 125.628C74.2462 125.779 74.3562 125.913 74.5027 125.996C74.7229 126.122 75.0055 126.06 75.1485 125.84C75.3071 125.597 75.2803 125.309 75.1364 125.066C75.087 124.983 75.0254 124.912 74.9578 124.846C75.0627 124.844 75.1676 124.834 75.269 124.815C75.4198 124.787 75.5698 124.73 75.6461 124.58C75.7145 124.443 75.6894 124.29 75.6149 124.163C75.4675 123.914 75.1667 123.815 74.8989 123.816C74.8434 123.817 74.7888 123.823 74.7342 123.833C74.7714 123.709 74.7975 123.58 74.807 123.449C74.8269 123.175 74.8053 122.791 74.5296 122.652C74.3779 122.576 74.2072 122.628 74.0971 122.753C74.0607 122.795 74.0312 122.843 74.0078 122.894C73.9679 122.983 73.9436 123.082 73.9237 123.176C73.902 123.279 73.8899 123.383 73.8856 123.489L73.8526 123.455C73.681 123.291 73.4504 123.108 73.2034 123.129C73.0751 123.138 72.9607 123.221 72.9139 123.346C72.8627 123.481 72.9061 123.626 72.9711 123.748C73.063 123.918 73.1834 124.072 73.3256 124.201C73.2537 124.202 73.1826 124.206 73.1115 124.213C72.8497 124.237 72.5333 124.42 72.6287 124.745C72.7067 125.002 72.9806 125.066 73.2181 125.07Z" fill="#6F36A2"/>
<path d="M84.0729 131.55C84.1246 131.539 84.1747 131.525 84.2247 131.51C84.4086 131.452 84.6122 131.273 84.4981 131.054C84.4062 130.881 84.2009 130.876 84.0294 130.91C84.0581 130.798 84.0515 130.68 83.9826 130.579C83.8816 130.43 83.6854 130.383 83.5229 130.436C83.4137 130.471 83.33 130.552 83.2709 130.651C83.1921 130.555 83.0944 130.476 82.9778 130.438C82.8013 130.381 82.6076 130.468 82.5345 130.648C82.4549 130.846 82.514 131.049 82.6511 131.202C82.6987 131.255 82.7529 131.296 82.8095 131.333C82.7357 131.35 82.6626 131.374 82.5912 131.403C82.5206 131.432 82.4525 131.47 82.404 131.529C82.3819 131.558 82.3638 131.59 82.3531 131.629C82.3228 131.736 82.3622 131.843 82.4328 131.923C82.5337 132.036 82.6807 132.08 82.826 132.081C82.8834 132.082 82.9417 132.076 82.9959 132.064C83.0361 132.056 83.0739 132.043 83.1116 132.027C83.1018 132.122 83.101 132.219 83.1124 132.314C83.1371 132.515 83.206 132.787 83.4236 132.845C83.5426 132.877 83.6583 132.813 83.7199 132.707C83.7757 132.609 83.7839 132.489 83.7856 132.377C83.7872 132.3 83.7807 132.222 83.77 132.146L83.7971 132.166C83.944 132.258 84.1353 132.355 84.3101 132.302C84.4004 132.275 84.4718 132.199 84.4883 132.103C84.5055 131.997 84.4546 131.9 84.3914 131.823C84.3011 131.713 84.1936 131.621 84.0729 131.55Z" fill="#6F36A2"/>
<path d="M61.864 88.0047C61.9427 88.7471 62.2233 89.4384 62.6792 90.0119C62.0802 90.48 61.9882 91.372 62.4944 91.9693L62.5872 91.9965C62.783 92.4521 63.0644 92.8681 63.4135 93.2115C63.6076 93.4019 63.834 93.5764 64.0981 93.6172C64.1869 93.6308 64.2774 93.6286 64.3662 93.6138C64.5241 93.5866 64.6774 93.5186 64.8135 93.4302C64.9644 93.3316 65.0941 93.2081 65.2222 93.0811C65.3912 92.9134 65.3826 92.9032 65.532 93.0947C65.7576 93.3826 65.9808 93.6705 66.2536 93.913C66.5806 94.2043 66.976 94.4299 67.406 94.4763C67.8336 94.5228 68.2943 94.3675 68.5616 94.0151C68.9145 93.5492 68.8516 92.8522 68.5639 92.3399C68.4208 92.0838 68.2298 91.8627 68.0223 91.6621C67.8525 91.4989 67.5097 91.3187 67.4114 91.1159C67.5428 91.0785 67.7778 91.1929 67.9224 91.2258C68.1229 91.2723 68.3273 91.3074 68.5332 91.3176C68.9334 91.3369 69.35 91.2553 69.6732 91.0093C69.9954 90.7634 70.2052 90.3338 70.1314 89.9247C70.0653 89.5586 69.791 89.2662 69.482 89.0792C69.0946 88.8445 68.6512 88.7482 68.2086 88.7233C67.7676 88.6983 67.3023 88.8219 66.8731 88.7811C67.1183 88.4841 67.3965 88.3039 67.5569 87.9186C67.7039 87.5661 67.7518 87.166 67.6717 86.7886C67.4924 85.9499 66.5806 85.127 65.7238 85.4149C65.3205 85.5498 65.058 85.9646 64.9322 86.3862C64.8071 86.8056 64.7876 87.251 64.6901 87.6783H64.683C64.3827 87.2023 64.0627 86.7115 63.5848 86.435C63.1052 86.1562 62.4175 86.1788 62.0904 86.639C61.9175 86.8827 61.8751 87.2011 61.8773 87.5037C61.879 87.6432 61.8892 87.7814 61.9065 87.9186C61.879 87.9322 61.8593 87.9605 61.864 88.0047Z" fill="#6DB0FF"/>
<path d="M84.316 128.083C83.991 127.712 83.2451 127.713 82.7995 127.711C82.519 127.711 81.8595 127.837 81.1522 128.066C81.3523 127.666 81.5328 127.254 81.6919 126.834C81.851 126.412 81.9912 125.96 81.9194 125.514C81.8407 125.023 81.3771 124.528 80.8656 124.573C80.3858 124.615 79.9299 125.23 79.6562 125.596C79.4116 125.925 78.8907 127.043 78.6307 128.123C78.1534 127.538 77.6257 126.996 77.0569 126.509C76.9252 126.396 76.7892 126.286 76.6464 126.188C76.4231 126.036 76.1845 125.917 75.9219 125.876C75.4498 125.803 74.8553 126.111 74.739 126.631C74.6295 127.12 75.0503 127.761 75.3009 128.146C75.4669 128.402 75.9903 128.948 76.6224 129.455C76.7593 129.564 76.9021 129.673 77.0484 129.777C76.9175 129.817 76.7875 129.859 76.6583 129.904C76.1751 130.072 75.7012 130.27 75.2419 130.498C74.8485 130.692 74.4499 130.923 74.2096 131.3C73.9453 131.714 73.9607 132.406 74.3627 132.738C74.7407 133.048 75.4771 132.924 75.9168 132.851C76.1734 132.808 76.7336 132.605 77.3409 132.301C77.5752 132.184 77.8173 132.052 78.0516 131.908C77.9943 132.277 77.9533 132.649 77.9268 133.019C77.9062 133.31 77.8951 133.601 77.8943 133.891C77.8917 134.268 77.9097 134.659 78.0431 135.004C78.5777 135.178 79.1114 135.357 79.6434 135.541C79.9479 135.233 80.1138 134.651 80.2199 134.279C80.2584 134.146 80.2951 133.919 80.3217 133.634C80.3405 133.432 80.355 133.201 80.361 132.953C80.5646 133.19 80.7741 133.418 80.9931 133.638L81.0016 133.646C81.3121 133.958 81.6577 134.261 82.0768 134.361C82.2889 134.413 82.5327 134.386 82.7499 134.294C83.0074 134.186 83.228 133.983 83.3136 133.707C83.459 133.228 83.0886 132.554 82.8679 132.15L82.826 132.079C82.6806 132.078 82.5344 132.033 82.4326 131.921C82.3624 131.841 82.3231 131.735 82.353 131.627C82.3633 131.587 82.3821 131.555 82.4044 131.527C82.1401 131.219 81.7962 130.86 81.4207 130.528C81.9895 130.442 82.5532 130.315 83.1057 130.147C83.5231 130.021 83.9516 129.859 84.2467 129.527C84.57 129.162 84.6624 128.477 84.316 128.083Z" fill="#6DB0FF"/>
<path d="M74.9566 123.231C75.2342 123.46 75.7751 123.369 76.0976 123.315C76.2252 123.294 76.4534 123.219 76.7274 123.103C77.0141 122.982 77.3501 122.816 77.6663 122.623C77.5918 123.104 77.5531 123.591 77.5504 124.079C77.5477 124.412 77.5666 124.76 77.7301 125.046C77.9089 125.361 78.3528 125.571 78.6915 125.399C79.0095 125.238 79.165 124.69 79.2593 124.364C79.3069 124.197 79.351 123.827 79.3626 123.39C79.5118 123.563 79.6663 123.732 79.8272 123.893C80.0572 124.124 80.3123 124.35 80.6232 124.425C80.9655 124.507 81.4174 124.317 81.5315 123.943L81.5387 123.916C81.625 123.567 81.3617 123.089 81.2045 122.8C81.0823 122.576 80.6501 122.058 80.1407 121.609C80.5594 121.545 80.9727 121.451 81.3797 121.329C81.6861 121.236 82.0005 121.117 82.2171 120.873C82.4552 120.605 82.5226 120.102 82.2674 119.812C82.0293 119.541 81.4812 119.541 81.1551 119.54C80.9484 119.539 80.4633 119.631 79.944 119.8C80.0913 119.505 80.2243 119.203 80.3402 118.894C80.457 118.585 80.5603 118.253 80.5082 117.925C80.4498 117.564 80.1093 117.201 79.7346 117.234C79.3815 117.264 79.0464 117.716 78.8451 117.985C78.696 118.185 78.4076 118.786 78.2027 119.438C78.1614 119.571 78.1237 119.706 78.0913 119.842C77.7409 119.411 77.3537 119.014 76.935 118.655L76.846 118.58C76.6232 118.398 76.3797 118.234 76.1012 118.191C75.7553 118.137 75.3186 118.363 75.2324 118.745C75.1524 119.105 75.4615 119.576 75.6448 119.858C75.7832 120.07 76.2468 120.546 76.784 120.95C76.8317 120.986 76.8802 121.021 76.9287 121.056C76.8793 121.072 76.829 121.088 76.7805 121.104C76.377 121.236 75.9817 121.397 75.6017 121.586C75.3133 121.729 75.0204 121.898 74.8443 122.175C74.6502 122.48 74.661 122.988 74.9566 123.231Z" fill="#6DB0FF"/>
<path d="M73.2961 129.54C73.1857 129.339 72.7991 128.873 72.3415 128.47C72.7084 128.415 73.0737 128.333 73.4295 128.227L73.4535 128.22C73.7272 128.136 74.0095 128.03 74.2045 127.811C74.4175 127.571 74.4782 127.119 74.2507 126.86C74.1044 126.694 73.8307 126.641 73.5792 126.624C73.4595 126.616 73.3448 126.616 73.2508 126.615C73.0668 126.615 72.6315 126.697 72.1653 126.849C72.2979 126.584 72.4168 126.313 72.5211 126.036C72.6263 125.759 72.7179 125.461 72.6708 125.167C72.6203 124.844 72.3133 124.517 71.9779 124.547C71.6606 124.574 71.3603 124.98 71.1799 125.221C71.019 125.437 70.6752 126.174 70.505 126.887C70.1893 126.501 69.8429 126.144 69.4674 125.823C69.2467 125.633 69.0029 125.449 68.7198 125.406C68.4093 125.357 68.0175 125.56 67.9405 125.903C67.8678 126.225 68.1458 126.648 68.31 126.901C68.4443 127.107 68.9259 127.596 69.4614 127.975C69.0534 128.101 68.6556 128.26 68.2715 128.451C68.0124 128.578 67.7498 128.731 67.5924 128.98C67.4187 129.252 67.4281 129.708 67.6924 129.926C67.9422 130.131 68.4264 130.049 68.7172 130.001C68.9507 129.962 69.5692 129.719 70.1226 129.38C70.0567 129.812 70.0208 130.249 70.0191 130.686C70.0174 130.985 70.0345 131.297 70.1808 131.554C70.3407 131.836 70.7385 132.025 71.0421 131.871C71.3278 131.726 71.4664 131.235 71.552 130.942C71.5947 130.792 71.6341 130.461 71.6443 130.069C71.7778 130.224 71.9172 130.375 72.0609 130.52C72.2671 130.726 72.4954 130.929 72.7752 130.997C72.918 131.031 73.0822 131.012 73.2277 130.948C73.3945 130.875 73.5339 130.743 73.5895 130.564C73.6802 130.266 73.4663 129.854 73.3209 129.585L73.2961 129.54Z" fill="#6DB0FF"/>
<path d="M80.4859 129.791C80.3771 129.367 80.1148 128.995 79.7346 128.863C79.6657 128.838 79.5943 128.822 79.5171 128.814C79.449 128.808 79.3793 128.809 79.3071 128.817C78.9277 128.86 78.6355 129.091 78.4504 129.402C78.4105 129.467 78.3765 129.538 78.3474 129.609C78.2254 129.908 78.1897 130.249 78.2545 130.561C78.2711 130.638 78.2926 130.712 78.32 130.783C78.408 131.008 78.5566 131.205 78.7716 131.342C78.9194 131.436 79.0871 131.492 79.2598 131.51C79.3328 131.517 79.4083 131.518 79.4814 131.512C79.7429 131.49 79.9969 131.383 80.1878 131.196C80.226 131.158 80.2609 131.119 80.2916 131.077C80.3373 131.015 80.3771 130.949 80.4095 130.879C80.5299 130.623 80.5664 130.316 80.529 130.018C80.5191 129.942 80.505 129.866 80.4859 129.791Z" fill="#EED0C1"/>
<path d="M77.9585 120.779C77.9294 120.827 77.9048 120.879 77.8828 120.932C77.7939 121.15 77.7675 121.402 77.8159 121.631C77.8265 121.687 77.8432 121.742 77.8634 121.793C77.9286 121.958 78.0368 122.103 78.1943 122.204C78.3034 122.273 78.4275 122.314 78.5542 122.327C78.6079 122.333 78.6624 122.334 78.717 122.329C78.9097 122.313 79.0954 122.235 79.2362 122.097L79.3119 122.01C79.3453 121.965 79.3743 121.915 79.399 121.864C79.487 121.676 79.5134 121.45 79.4861 121.232C79.4791 121.176 79.4694 121.12 79.4544 121.066C79.3743 120.754 79.1816 120.48 78.9018 120.382C78.8508 120.365 78.7988 120.353 78.7425 120.348C78.6932 120.343 78.6422 120.343 78.5885 120.349C78.3105 120.381 78.0949 120.55 77.9585 120.779Z" fill="#EED0C1"/>
<path d="M71.2321 127.371C71.186 127.355 71.1373 127.344 71.0878 127.339C71.0434 127.336 70.9973 127.336 70.9494 127.341C70.6995 127.37 70.5074 127.522 70.3849 127.727C70.3589 127.769 70.3363 127.816 70.317 127.863C70.2365 128.06 70.2138 128.284 70.2566 128.491C70.2675 128.541 70.2818 128.59 70.2994 128.637C70.3573 128.785 70.4554 128.914 70.5971 129.005C70.6944 129.067 70.8052 129.103 70.9184 129.115C70.9671 129.12 71.0157 129.12 71.0652 129.116C71.2371 129.102 71.4041 129.032 71.5299 128.909L71.5987 128.83C71.628 128.79 71.6549 128.746 71.6758 128.7C71.7555 128.531 71.779 128.329 71.7538 128.132C71.7488 128.082 71.7379 128.033 71.7262 127.984C71.6549 127.704 71.4821 127.459 71.2321 127.371Z" fill="#EED0C1"/>
<path d="M73.9874 124.805C74.0911 124.892 74.2566 124.899 74.3552 124.805C74.5525 124.616 74.3707 124.242 74.1289 124.21C73.8193 124.168 73.7962 124.641 73.9874 124.805Z" fill="#EED0C1"/>
<path d="M83.495 131.675C83.7227 131.658 83.673 131.315 83.5138 131.226C83.4264 131.178 83.3073 131.199 83.2493 131.281C83.1334 131.447 83.3154 131.688 83.495 131.675Z" fill="#EED0C1"/>
<path d="M47.7428 163.244C47.8859 161.09 48.029 158.937 48.1718 156.785L47.7857 156.789C47.316 163.866 46.8464 170.943 46.3767 178.019C45.632 189.238 44.8873 200.457 44.1427 211.675C43.8151 216.614 43.4871 221.553 43.1592 226.492L43.5455 226.488C44.1998 216.625 44.8545 206.762 45.5092 196.9C46.2538 185.681 46.9985 174.462 47.7428 163.244Z" fill="#71AAFC"/>
<path d="M47.7721 221.67C47.6852 223.265 47.5986 224.861 47.5117 226.457L47.8977 226.453C48.3086 218.883 48.7203 211.314 49.1315 203.745C49.8679 190.197 50.6039 176.65 51.3399 163.102C51.4548 160.988 51.5696 158.872 51.6845 156.758L51.2994 156.762L49.9805 181.027C49.2445 194.574 48.5079 208.122 47.7721 221.67Z" fill="#71AAFC"/>
<path d="M59.169 166.041C59.2366 162.914 59.3034 159.788 59.371 156.663L58.9858 156.667C58.7909 165.688 58.5959 174.71 58.401 183.732C58.1141 197.034 57.8264 210.337 57.5394 223.639C57.519 224.539 57.5001 225.439 57.4805 226.34L57.8664 226.336C58.0134 219.54 58.1597 212.744 58.3074 205.949C58.5944 192.645 58.8813 179.343 59.169 166.041Z" fill="#71AAFC"/>
<path d="M67.8212 219.157C67.8621 221.512 67.8983 223.865 67.9321 226.219L68.318 226.215C68.2033 218.18 68.0492 210.148 67.8566 202.115C67.5461 189.179 67.1342 176.247 66.6209 163.319C66.5313 161.072 66.4393 158.824 66.3434 156.577L65.959 156.582C66.2946 164.504 66.5926 172.429 66.8528 180.354C67.2765 193.285 67.5996 206.221 67.8212 219.157Z" fill="#71AAFC"/>
<path d="M74.6258 214.099L75.3474 226.135L75.7318 226.13C75.1815 216.924 74.6289 207.717 74.0771 198.51C73.3719 186.75 72.6676 174.991 71.9625 163.23L71.56 156.516L71.1748 156.52C71.6197 163.953 72.0662 171.386 72.5112 178.819C73.2163 190.579 73.9206 202.339 74.6258 214.099Z" fill="#71AAFC"/>
<path d="M54.5827 96.8484C54.6675 96.9109 54.7968 96.8635 54.8462 96.7763C54.9027 96.675 54.8622 96.5641 54.7774 96.5005C54.5223 96.3131 54.3479 95.9931 54.3294 95.6678C54.3095 95.3145 54.4499 94.9795 54.7003 94.7447C54.8852 94.5702 54.6116 94.2869 54.4276 94.4592C54.1009 94.7673 53.909 95.2391 53.9459 95.6991C53.9827 96.1655 54.218 96.5791 54.5827 96.8484Z" fill="#F46C60"/>
<path d="M49.509 96.0645C49.1586 95.942 48.8924 95.6165 48.7828 95.2491C48.738 95.0987 48.7245 94.9472 48.738 94.8022C48.2414 94.7657 47.7305 94.9719 47.3767 95.3415C46.9511 95.7851 46.7509 96.4383 46.8003 97.0635C46.8529 97.7296 47.189 98.3741 47.7194 98.7501C48.25 99.1261 48.9692 99.2121 49.5529 98.9338C50.2361 98.6083 50.6627 97.822 50.6783 97.0388C50.6857 96.6499 50.6015 96.2675 50.4505 95.9119C50.1886 96.1074 49.8496 96.1837 49.509 96.0645Z" fill="#F46C60"/>
<path d="M50.4236 93.9054C49.7324 93.4226 48.9441 93.9173 48.7687 94.621C48.7541 94.6816 48.7433 94.7433 48.7384 94.805C48.7249 94.9511 48.7384 95.1027 48.7832 95.2532C48.8928 95.6201 49.1591 95.9449 49.5094 96.0683C49.8499 96.1874 50.189 96.1105 50.4509 95.9157C50.7061 95.7262 50.887 95.4242 50.9238 95.0843C50.9717 94.635 50.7835 94.1566 50.4236 93.9054Z" fill="#46303D"/>
<path d="M61.4995 95.4192C61.1379 95.0585 60.6222 94.8641 60.1278 94.9124C60.1442 95.0574 60.134 95.2088 60.0931 95.3602C59.991 95.7306 59.7307 96.0613 59.3842 96.1922C59.0453 96.32 58.7049 96.2513 58.44 96.0634C58.2962 96.4209 58.2207 96.8064 58.2364 97.194C58.2687 97.9767 58.712 98.7529 59.4022 99.0621C59.9925 99.3262 60.7094 99.2242 61.2314 98.8356C61.7534 98.4469 62.0749 97.7941 62.1134 97.1274C62.1487 96.5004 61.9349 95.853 61.4995 95.4192Z" fill="#F46C60"/>
<path d="M59.3848 96.1928C59.7315 96.0619 59.9917 95.7309 60.0939 95.3599C60.1347 95.2085 60.1449 95.057 60.1285 94.9121C60.1214 94.8504 60.1096 94.7888 60.0939 94.7293C59.9029 94.0294 59.1042 93.5534 58.4241 94.0521C58.0689 94.3117 57.8912 94.7952 57.9493 95.2431C57.9934 95.5827 58.1812 95.8791 58.4406 96.063C58.7055 96.2512 59.046 96.3204 59.3848 96.1928Z" fill="#46303D"/>
<path d="M22.8838 147.037C23.1316 147.339 23.4009 147.618 23.6892 147.873C23.6401 147.823 23.5916 147.772 23.5428 147.722C23.3496 147.523 23.1288 147.294 22.8838 147.037Z" fill="#75A29E"/>
<path d="M7.56237 125.439C7.43187 125.219 7.09808 125.421 7.22918 125.642C7.6091 126.282 8.06896 126.87 8.59538 127.386C8.77619 127.562 9.04945 127.278 8.8683 127.101C8.36443 126.608 7.92594 126.052 7.56237 125.439Z" fill="#A587FF"/>
<path d="M10.602 125.462C9.91908 124.996 9.33594 124.381 8.89921 123.662C8.76633 123.445 8.43249 123.646 8.56615 123.865C9.03899 124.643 9.66788 125.305 10.4076 125.808C10.6161 125.95 10.8095 125.602 10.602 125.462Z" fill="#A587FF"/>
<path d="M10.3815 122.271C10.2004 122.094 9.92677 122.378 10.1088 122.555L11.8754 124.275C12.0567 124.451 12.3299 124.167 12.1482 123.99C11.5591 123.417 10.9705 122.844 10.3815 122.271Z" fill="#A587FF"/>
<path d="M13.3827 122.546C12.7615 122.085 12.1399 121.625 11.5185 121.165C11.4337 121.102 11.3038 121.15 11.2546 121.237C11.1982 121.338 11.2387 121.449 11.3238 121.512C11.9453 121.972 12.5668 122.433 13.1883 122.893C13.273 122.956 13.4027 122.909 13.452 122.821C13.5085 122.72 13.4681 122.609 13.3827 122.546Z" fill="#A587FF"/>
<path d="M15.4402 121.411C14.5669 120.825 13.6258 120.355 12.6415 120.009C12.406 119.926 12.305 120.314 12.5393 120.397C13.4921 120.732 14.3995 121.191 15.2458 121.758C15.4549 121.899 15.6487 121.551 15.4402 121.411Z" fill="#A587FF"/>
<path d="M59.2135 105.386C57.962 106.151 56.556 106.606 55.1085 106.707C54.8619 106.724 54.86 107.126 55.1085 107.109C56.6248 107.004 58.0965 106.535 59.4068 105.733C59.6214 105.602 59.4273 105.255 59.2135 105.386Z" fill="#F46C60"/>
<path d="M56.3397 99.3429C55.731 99.9409 54.8261 100.14 54.0339 99.8665C53.7975 99.7859 53.6964 100.173 53.9313 100.254C54.8537 100.573 55.9073 100.32 56.613 99.6267C56.7938 99.4487 56.5204 99.1649 56.3397 99.3429Z" fill="#46303D"/>
<path d="M65.9438 99.8825C65.9453 98.9152 66.4028 97.9671 67.1583 97.4029C67.2431 97.3392 67.2824 97.2279 67.2274 97.1282C67.1795 97.0401 67.0482 96.9924 66.9633 97.055C66.0955 97.7051 65.5601 98.7657 65.5586 99.8825C65.5578 100.14 65.9438 100.141 65.9438 99.8825Z" fill="#F46C60"/>
<path d="M66.4414 98.927C66.7575 99.4443 66.7913 100.121 66.5129 100.665C66.3967 100.894 66.7292 101.097 66.8462 100.869C67.1866 100.201 67.1646 99.3644 66.7747 98.7241C66.6411 98.5065 66.307 98.7084 66.4414 98.927Z" fill="#F46C60"/>
<path d="M67.9215 90.2676C68.0362 90.3163 68.0866 90.1217 67.9726 90.0742C67.2832 89.779 66.5294 89.684 65.7959 89.7912L65.8502 89.8796L65.906 89.9802C66.5875 89.8951 67.2809 89.9935 67.9215 90.2676Z" fill="#9E8CFF"/>
<path d="M67.1518 92.6168C67.2209 92.7234 67.3884 92.6223 67.3176 92.5158C66.9033 91.882 66.4011 91.3186 65.8272 90.843C65.7682 90.8913 65.7007 90.9243 65.626 90.9331C66.2156 91.4064 66.7328 91.9754 67.1518 92.6168Z" fill="#9E8CFF"/>
<path d="M66.0113 87.4519C65.8642 88.0902 65.6229 88.6972 65.2959 89.2549C65.3501 89.2918 65.402 89.3322 65.4507 89.377C65.7926 88.7991 66.045 88.1663 66.1975 87.5056C66.2266 87.3802 66.041 87.3264 66.0113 87.4519Z" fill="#9E8CFF"/>
<path d="M64.5474 89.1256C64.2046 88.6981 63.7967 88.3287 63.3399 88.0352C63.2338 87.9672 63.1372 88.1413 63.2432 88.2093C63.6858 88.4939 64.0804 88.8533 64.4105 89.2695L64.4161 89.2584C64.446 89.1992 64.4923 89.1557 64.5474 89.1256Z" fill="#9E8CFF"/>
<path d="M63.4416 91.4169C63.3292 91.472 63.4259 91.646 63.5383 91.5909C64.0728 91.3276 64.5508 90.9454 64.9313 90.4739C64.8904 90.421 64.8495 90.3671 64.8109 90.312C64.4376 90.7802 63.9706 91.1569 63.4416 91.4169Z" fill="#9E8CFF"/>
<path d="M64.5984 87.7987C64.7579 88.2022 64.8209 88.6382 64.7808 89.0685C64.6975 89.0674 64.6149 89.0841 64.5473 89.121C64.4923 89.1512 64.4459 89.1948 64.416 89.254L64.4106 89.2641C64.3311 89.4317 64.4097 89.6341 64.4986 89.7972L64.5088 89.8162C63.9932 89.6285 63.4083 89.6788 62.9177 89.9895L62.9091 89.9962C62.9248 90.0364 62.9154 90.0834 62.8809 90.1124C62.9005 90.1627 62.9571 90.1996 63.0161 90.1627C63.5333 89.8352 64.1668 89.8263 64.6817 90.1124C64.7226 90.1784 64.7659 90.2443 64.8106 90.3103C64.8492 90.3651 64.89 90.4187 64.9309 90.4712C65.0118 90.5741 65.0975 90.668 65.1888 90.7451L65.2005 90.7674C65.5976 91.352 65.64 92.1523 65.2989 92.7749C65.2375 92.8878 65.4034 92.9895 65.4647 92.8766C65.7909 92.2831 65.8051 91.5342 65.5158 90.9262C65.5535 90.9329 65.5905 90.934 65.6266 90.9295C65.7013 90.9194 65.7689 90.887 65.8279 90.839C65.8994 90.7797 65.956 90.697 65.9905 90.6043C66.1981 90.6344 66.4017 90.6858 66.6006 90.7607C66.7335 90.8099 66.8663 90.868 66.9881 90.9418C67.0919 91.0055 67.1894 91.086 67.2184 91.2145C67.2467 91.3408 67.4323 91.2872 67.404 91.1609C67.334 90.8457 66.9905 90.7037 66.7319 90.5975C66.5055 90.5059 66.2696 90.4422 66.029 90.4075L66.0221 90.3025C66.0039 90.1873 65.96 90.0789 65.9056 89.9761L65.8499 89.8755L65.7956 89.7872C65.7626 89.7369 65.7281 89.6877 65.6911 89.6396C66.0637 89.4273 66.423 89.1925 66.7696 88.9377C66.8703 88.8639 66.7736 88.6896 66.6721 88.7645C66.3152 89.0271 65.9442 89.2674 65.5606 89.4843C65.5261 89.4463 65.4891 89.4105 65.4506 89.3759C65.4018 89.3323 65.3499 89.2909 65.2957 89.254C65.2029 89.1903 65.1031 89.1389 64.9962 89.1042L64.971 89.0964C65.0151 88.6382 64.9537 88.1732 64.7839 87.7451C64.7666 87.7004 64.7281 87.6803 64.6895 87.6791H64.6826C64.6244 87.6814 64.571 87.7283 64.5984 87.7987Z" fill="#DBF3FF"/>
<path d="M61.864 88.0127C61.9426 88.7551 62.2232 89.4462 62.6791 90.02C62.0801 90.4878 61.9881 91.3809 62.4943 91.9771L62.5872 92.0039C62.6446 91.9827 62.6846 91.899 62.6303 91.8353C62.1823 91.3061 62.2971 90.5001 62.8701 90.1272L62.8812 90.1194C62.9157 90.0904 62.9252 90.0435 62.9094 90.0022L62.8898 89.9687C62.426 89.4216 62.1344 88.7384 62.0565 88.0127C62.0479 87.929 61.9606 87.8999 61.9064 87.9256C61.8789 87.9401 61.8593 87.9692 61.864 88.0127Z" fill="#4F2E86"/>
<path d="M33.6637 136.174C32.5376 135.115 31.3762 134.099 30.1805 133.127C29.9873 132.97 29.7125 133.253 29.9078 133.412C31.1033 134.383 32.2646 135.4 33.3906 136.458C33.5745 136.631 33.8481 136.347 33.6637 136.174Z" fill="#A587FF"/>
<path d="M42.8462 129.026L42.3119 138.817C42.2977 139.075 42.6833 139.074 42.6979 138.817L43.2321 129.026C43.2463 128.767 42.8605 128.768 42.8462 129.026Z" fill="#A587FF"/>
<path d="M53.6703 113.283C53.6152 113.194 53.4971 113.15 53.4062 113.211C53.0527 113.445 52.6993 113.68 52.3459 113.914C52.2608 113.97 52.2191 114.095 52.2765 114.189C52.3314 114.278 52.4491 114.321 52.5406 114.262C52.8937 114.027 53.2474 113.792 53.6009 113.558C53.6859 113.501 53.7277 113.376 53.6703 113.283Z" fill="#A587FF"/>
<path d="M54.3146 115.233C54.6358 114.964 54.957 114.696 55.2782 114.429C55.3575 114.363 55.3491 114.212 55.2782 114.144C55.1941 114.064 55.09 114.074 55.0058 114.144C54.6843 114.412 54.3632 114.68 54.042 114.948C53.9624 115.014 53.9707 115.165 54.042 115.233C54.1255 115.313 54.2302 115.302 54.3146 115.233Z" fill="#A587FF"/>
<path d="M56.8268 116.296C56.9199 116.318 57.0461 116.266 57.0639 116.156C57.128 115.753 57.1922 115.351 57.2564 114.95C57.2729 114.846 57.2306 114.728 57.1222 114.702C57.0289 114.68 56.9023 114.731 56.8848 114.843C56.8204 115.245 56.7565 115.646 56.692 116.048C56.6753 116.152 56.7177 116.27 56.8268 116.296Z" fill="#A587FF"/>
<path d="M59.3906 116.249C59.4071 116.353 59.536 116.42 59.6272 116.389C59.7357 116.353 59.7805 116.253 59.7616 116.141C59.6979 115.74 59.6335 115.337 59.569 114.936C59.5525 114.832 59.4243 114.764 59.3324 114.796C59.2247 114.832 59.1791 114.931 59.1972 115.042C59.2624 115.445 59.3253 115.846 59.3906 116.249Z" fill="#A587FF"/>
<path d="M61.8966 115.947C61.928 116.046 62.0309 116.122 62.1332 116.087C62.2283 116.055 62.3021 115.947 62.2684 115.84L61.9791 114.936C61.9469 114.836 61.8446 114.761 61.7417 114.796C61.6474 114.827 61.5727 114.936 61.6072 115.042L61.8966 115.947Z" fill="#A587FF"/>
<path d="M66.0728 113.401C66.5232 113.568 66.9736 113.735 67.4233 113.901C67.5215 113.937 67.634 113.86 67.6607 113.761C67.6897 113.649 67.6237 113.55 67.5255 113.513C67.0751 113.347 66.6254 113.18 66.175 113.014C66.0766 112.977 65.9643 113.054 65.9376 113.154C65.9085 113.265 65.9745 113.364 66.0728 113.401Z" fill="#A587FF"/>
<path d="M65.8026 115.133C65.8694 115.212 66.0069 115.21 66.0753 115.133C66.1492 115.049 66.1469 114.933 66.0753 114.849C65.8183 114.548 65.5612 114.246 65.3042 113.945C65.2366 113.866 65.0982 113.868 65.0314 113.945C64.9567 114.029 64.9599 114.145 65.0314 114.229C65.2884 114.53 65.5455 114.832 65.8026 115.133Z" fill="#A587FF"/>
<path d="M63.8199 115.912C63.864 116.008 64.0007 116.04 64.0833 115.985C64.1768 115.922 64.1996 115.811 64.1532 115.709C63.9952 115.373 63.838 115.036 63.6816 114.699C63.6368 114.605 63.5 114.572 63.4166 114.627C63.3247 114.69 63.3003 114.801 63.3483 114.902C63.5055 115.239 63.6619 115.576 63.8199 115.912Z" fill="#A587FF"/>
<path d="M78.3463 129.617C78.3756 129.545 78.41 129.476 78.4494 129.409C77.7797 128.882 77.1755 128.266 76.6492 127.582C76.5603 127.465 76.4044 127.63 76.4933 127.746C77.033 128.449 77.6565 129.077 78.3463 129.617Z" fill="#DBF3FF"/>
<path d="M80.351 126.754C80.416 126.622 80.2245 126.504 80.1595 126.637C79.8271 127.322 79.6103 128.059 79.5166 128.815C79.5942 128.823 79.6659 128.839 79.7351 128.863C79.8229 128.131 80.0296 127.416 80.351 126.754Z" fill="#DBF3FF"/>
<path d="M82.6969 129.515C82.8334 129.472 82.7755 129.248 82.6373 129.292C81.9339 129.517 81.2147 129.685 80.4873 129.793C80.5055 129.867 80.5196 129.943 80.5303 130.02C81.2635 129.91 81.9885 129.742 82.6969 129.515Z" fill="#DBF3FF"/>
<path d="M81.6663 132.79C81.7383 132.919 81.9305 132.802 81.8577 132.673C81.4749 131.993 80.985 131.388 80.4107 130.88C80.378 130.95 80.3388 131.016 80.293 131.078C80.8369 131.564 81.3015 132.143 81.6663 132.79Z" fill="#DBF3FF"/>
<path d="M79.2602 131.511C79.1894 132.341 79.1193 133.172 79.0493 134.002C79.0371 134.151 79.2586 134.15 79.2708 134.002C79.3416 133.172 79.4117 132.343 79.4817 131.513C79.4084 131.519 79.3335 131.519 79.2602 131.511Z" fill="#DBF3FF"/>
<path d="M75.9771 131.64C75.8574 131.721 75.9689 131.922 76.0894 131.84C76.7789 131.368 77.5315 131.013 78.321 130.782C78.2939 130.71 78.2718 130.636 78.2554 130.56C77.4495 130.796 76.6797 131.16 75.9771 131.64Z" fill="#DBF3FF"/>
<path d="M79.1734 129.448C79.4327 129.336 79.7127 129.431 79.8684 129.67C80.0208 129.903 80.0689 130.214 79.9893 130.485C79.8659 130.897 79.3847 131.051 79.0368 130.838C78.5629 130.528 78.669 129.666 79.1734 129.448ZM78.9133 131.03L78.9249 131.037L78.9365 131.044C79.335 131.28 79.8916 131.163 80.1244 130.737C80.3016 130.413 80.2793 129.993 80.1244 129.666C79.9604 129.322 79.6274 129.117 79.2579 129.183C78.8951 129.248 78.6325 129.571 78.5456 129.931C78.4486 130.341 78.5646 130.794 78.9133 131.03Z" fill="#DBF3FF"/>
<path d="M76.6373 119.435C76.5717 119.349 76.4574 119.47 76.5221 119.555C76.9189 120.072 77.3769 120.533 77.8836 120.93C77.9057 120.876 77.9305 120.825 77.9598 120.776C77.4673 120.389 77.0235 119.938 76.6373 119.435Z" fill="#DBF3FF"/>
<path d="M79.3554 118.839C79.4035 118.742 79.262 118.656 79.2148 118.754C78.971 119.256 78.8108 119.798 78.7432 120.353C78.7983 120.359 78.8508 120.371 78.9025 120.389C78.9665 119.851 79.1196 119.325 79.3554 118.839Z" fill="#DBF3FF"/>
<path d="M81.0777 120.86C81.1778 120.828 81.1356 120.664 81.0346 120.696C80.5175 120.861 79.9888 120.984 79.4541 121.064C79.469 121.119 79.4787 121.174 79.4857 121.23C80.0257 121.15 80.557 121.026 81.0777 120.86Z" fill="#DBF3FF"/>
<path d="M80.322 123.264C80.3751 123.358 80.5163 123.272 80.4623 123.178C80.1818 122.679 79.8212 122.233 79.3996 121.86C79.3752 121.912 79.3465 121.961 79.3125 122.005C79.7114 122.363 80.0537 122.788 80.322 123.264Z" fill="#DBF3FF"/>
<path d="M78.5542 122.327L78.3988 124.157C78.3901 124.265 78.5533 124.265 78.562 124.157C78.6141 123.547 78.6653 122.938 78.7174 122.328C78.6627 122.333 78.6089 122.332 78.5542 122.327Z" fill="#DBF3FF"/>
<path d="M76.1407 122.423C76.0535 122.483 76.1355 122.63 76.2245 122.57C76.7313 122.223 77.2844 121.962 77.8646 121.792C77.8436 121.74 77.827 121.686 77.8166 121.63C77.2234 121.803 76.658 122.071 76.1407 122.423Z" fill="#DBF3FF"/>
<path d="M78.4903 120.815C78.68 120.732 78.8874 120.803 79.0007 120.978C79.1123 121.149 79.1484 121.378 79.0895 121.577C78.999 121.879 78.6458 121.993 78.3901 121.836C78.0421 121.609 78.1195 120.976 78.4903 120.815ZM78.2987 121.977L78.3075 121.983L78.3154 121.988C78.6089 122.161 79.0166 122.075 79.1888 121.762C79.3188 121.525 79.303 121.216 79.1879 120.976C79.0684 120.722 78.8233 120.572 78.5526 120.621C78.2864 120.668 78.0931 120.906 78.0298 121.17C77.9569 121.471 78.043 121.804 78.2987 121.977Z" fill="#DBF3FF"/>
<path d="M69.1998 126.528C69.1407 126.452 69.0377 126.56 69.0968 126.636C69.4513 127.1 69.8632 127.514 70.3173 127.869C70.3367 127.822 70.3586 127.776 70.3848 127.732C69.9442 127.384 69.5458 126.98 69.1998 126.528Z" fill="#DBF3FF"/>
<path d="M71.6381 125.984C71.6805 125.897 71.5541 125.819 71.5118 125.907C71.2922 126.359 71.1498 126.844 71.0879 127.342C71.1379 127.347 71.1854 127.357 71.232 127.373C71.2888 126.891 71.4253 126.42 71.6381 125.984Z" fill="#DBF3FF"/>
<path d="M73.1831 127.803C73.2727 127.774 73.2342 127.627 73.1438 127.656C72.68 127.804 72.2062 127.915 71.7266 127.986C71.7383 128.034 71.7483 128.085 71.7542 128.135C72.238 128.063 72.716 127.952 73.1831 127.803Z" fill="#DBF3FF"/>
<path d="M71.6759 128.703C71.6551 128.75 71.6277 128.793 71.5986 128.834C71.9567 129.154 72.2633 129.535 72.5033 129.961C72.5507 130.046 72.6778 129.969 72.6304 129.884C72.3771 129.437 72.0539 129.038 71.6759 128.703Z" fill="#DBF3FF"/>
<path d="M70.918 129.116C70.8724 129.662 70.8252 130.21 70.7796 130.757C70.7714 130.855 70.9171 130.854 70.9263 130.757C70.9718 130.211 71.0182 129.664 71.0654 129.117C71.0157 129.121 70.9668 129.121 70.918 129.116Z" fill="#DBF3FF"/>
<path d="M68.7556 129.205C68.6766 129.259 68.7498 129.391 68.8297 129.337C69.2848 129.026 69.7798 128.792 70.3007 128.639C70.2824 128.592 70.2682 128.544 70.2574 128.494C69.7258 128.649 69.2182 128.889 68.7556 129.205Z" fill="#DBF3FF"/>
<path d="M71.3994 128.443C71.3181 128.715 71.0023 128.816 70.772 128.676C70.4604 128.471 70.5308 127.904 70.8625 127.76C71.0325 127.686 71.2176 127.748 71.3206 127.906C71.4203 128.06 71.4521 128.265 71.3994 128.443ZM70.9177 127.586C70.6799 127.629 70.5065 127.841 70.4487 128.078C70.3842 128.348 70.4612 128.647 70.6907 128.802L70.6983 128.807L70.7067 128.812C70.968 128.967 71.3349 128.889 71.489 128.609C71.6054 128.396 71.5903 128.119 71.4881 127.904C71.3809 127.677 71.1615 127.542 70.9177 127.586Z" fill="#DBF3FF"/>
<path d="M82.26 127.105L82.3164 127.191C82.3541 127.206 82.3934 127.179 82.425 127.153C82.7336 126.904 83.0328 126.643 83.3234 126.371C83.5337 126.175 83.7388 125.975 83.9388 125.769C84.0756 125.627 84.2209 125.458 84.2106 125.257C84.1901 124.868 83.6696 124.628 83.3601 124.72C83.0293 124.818 82.7609 125.04 82.5643 125.326C82.5276 125.379 82.4925 125.435 82.4609 125.492C82.1942 125.978 82.113 126.594 82.26 127.105Z" fill="#9C79EA"/>
<path d="M77.5847 133.284C77.6105 133.252 77.6379 133.212 77.6258 133.173L77.5468 133.11C77.0641 132.933 76.4694 132.988 75.9923 133.243C75.6329 133.436 75.3403 133.74 75.209 134.143C75.6313 134.263 76.0527 134.387 76.4734 134.514C76.8618 134.122 77.2341 133.712 77.5847 133.284Z" fill="#9C79EA"/>
<path d="M72.637 133.401C72.8081 133.166 72.9734 132.927 73.1323 132.684C73.3522 132.349 73.5607 132.006 73.7578 131.655L73.779 131.54L73.691 131.491C73.5298 131.464 73.3636 131.462 73.195 131.483C72.835 131.528 72.4741 131.678 72.1825 131.91C71.8616 132.164 71.6246 132.519 71.5643 132.94C71.5529 133.02 71.5627 133.112 71.5879 133.203C71.9259 133.283 72.264 133.365 72.6012 133.449L72.637 133.401Z" fill="#9C79EA"/>
<path d="M70.7072 124.07C71.2347 124.017 71.7595 123.93 72.2783 123.813L72.3544 123.764L72.3328 123.684C72.1106 123.333 71.7111 123.073 71.2943 122.997C70.9813 122.939 70.6562 122.985 70.3907 123.174C70.1815 123.323 70.057 123.773 70.2732 123.983C70.3847 124.091 70.5559 124.085 70.7072 124.07Z" fill="#9C79EA"/>
<path d="M64.9282 132.775C64.8833 132.739 64.8375 132.705 64.7926 132.67L64.7776 132.656C64.2085 132.101 63.5744 131.623 63.0219 131.049C62.8996 130.921 62.789 130.814 62.6916 130.665C62.5809 130.496 62.4678 130.33 62.353 130.166C62.1208 129.837 61.878 129.517 61.6256 129.206C61.4181 128.95 61.1548 128.482 60.7775 128.528C60.2964 128.588 60.2406 129.338 60.2233 129.718C60.2052 130.137 60.2611 130.561 60.3931 130.958C60.4882 131.244 60.5723 131.531 60.6793 131.811L60.6423 131.869C59.0685 130.993 57.1605 129.952 55.9245 129.37C55.715 129.271 55.5001 129.172 55.2713 129.153C55.0429 129.132 54.7932 129.206 54.6529 129.395C54.4849 129.62 54.5162 129.956 54.6566 130.201C54.797 130.447 55.0254 130.622 55.2508 130.784C56.0304 131.347 57.1979 132.047 58.3697 132.709C56.8107 132.091 55.0468 131.41 53.8739 131.031C53.6549 130.96 53.4301 130.89 53.2007 130.9C52.9714 130.909 52.7325 131.013 52.6152 131.22C52.4758 131.465 52.5464 131.794 52.7147 132.019C52.8832 132.245 53.131 132.389 53.3743 132.521C54.126 132.93 55.1989 133.409 56.3058 133.867C55.4608 133.574 54.6639 133.31 54.037 133.125C53.8152 133.061 53.5889 132.998 53.3598 133.014C53.1305 133.03 52.8949 133.141 52.7832 133.35C52.6498 133.6 52.7291 133.926 52.9032 134.147C53.0777 134.368 53.3285 134.505 53.5751 134.63C54.4149 135.058 55.6468 135.559 56.8841 136.023C56.3154 135.838 55.7881 135.674 55.345 135.548C55.1236 135.486 54.8964 135.424 54.6677 135.442C54.4389 135.46 54.2034 135.573 54.0937 135.784C53.9627 136.035 54.0445 136.361 54.2206 136.579C54.3968 136.799 54.6486 136.933 54.8964 137.057C55.8198 137.516 57.2139 138.059 58.5693 138.547L58.5772 138.549C59.2658 138.797 59.945 139.03 60.5464 139.229L60.7311 139.293L62.2947 140.059C62.6625 138.334 64.1793 134.813 65.1662 132.969C65.0879 132.902 65.0081 132.837 64.9282 132.775Z" fill="#F89E87"/>
<path d="M91.6445 139.924C91.448 139.837 91.2491 139.759 91.0479 139.69C91.264 139.775 91.4637 139.853 91.6445 139.924Z" fill="#75A29E"/>
<path d="M86.4823 153.877C86.2291 153.772 85.9399 153.651 85.6191 153.515C85.9595 153.691 86.3125 153.839 86.6733 153.955C86.6088 153.93 86.5452 153.903 86.4823 153.877Z" fill="#75A29E"/>
<path d="M78.0431 134.979C77.5208 134.81 76.9978 134.646 76.4731 134.488C76.0527 134.361 75.6315 134.237 75.2087 134.117C74.7358 133.981 74.2612 133.851 73.785 133.724C73.5554 133.664 73.325 133.604 73.0938 133.544C72.9305 133.503 72.7656 133.462 72.6015 133.42C72.2644 133.336 71.9265 133.254 71.5885 133.174C70.5804 132.937 69.5691 132.718 68.5529 132.518C68.3103 132.47 68.2068 132.857 68.451 132.905C74.5037 134.101 80.4328 135.97 86.0999 138.495C87.7144 139.213 89.3062 139.987 90.8762 140.809C91.0977 140.924 91.2925 140.578 91.071 140.462C88.6893 139.215 86.2519 138.083 83.7692 137.073C82.407 136.517 81.031 135.998 79.643 135.517C79.111 135.332 78.5774 135.153 78.0431 134.979Z" fill="#A587FF"/>
<path d="M73.1862 147.031C69.8924 145.483 66.7253 143.659 63.7145 141.578C63.507 141.433 63.3136 141.782 63.5196 141.924C66.5303 144.006 69.6983 145.83 72.992 147.379C73.2161 147.484 73.4126 147.138 73.1862 147.031Z" fill="#A587FF"/>
<path d="M64.8447 140.598C64.8738 140.487 64.8085 140.388 64.7103 140.351C64.2331 140.175 63.7559 139.999 63.2788 139.823C63.1813 139.786 63.0681 139.864 63.0422 139.963C63.0131 140.074 63.0775 140.174 63.1766 140.21C63.6538 140.386 64.1309 140.563 64.6073 140.739C64.7056 140.775 64.8187 140.698 64.8447 140.598Z" fill="#A587FF"/>
<path d="M63.9553 138.061C63.8578 138.022 63.7438 138.103 63.7179 138.201C63.6888 138.314 63.7548 138.41 63.8531 138.448C64.3499 138.645 64.8475 138.842 65.3451 139.039C65.4418 139.078 65.5565 138.996 65.5825 138.898C65.6116 138.785 65.5455 138.69 65.448 138.651C64.9497 138.454 64.4529 138.257 63.9553 138.061Z" fill="#A587FF"/>
<path d="M66.4274 137.223C66.4572 137.111 66.3912 137.013 66.2929 136.976C65.7089 136.755 65.1248 136.534 64.5415 136.314C64.4433 136.277 64.3293 136.355 64.3041 136.454C64.2742 136.566 64.3403 136.664 64.4385 136.702C65.0226 136.922 65.6067 137.143 66.19 137.364C66.2882 137.401 66.4014 137.322 66.4274 137.223Z" fill="#A587FF"/>
<path d="M67.1737 135.581C67.2207 135.496 67.2008 135.349 67.1052 135.306C66.5397 135.051 65.9742 134.796 65.4095 134.542C65.3139 134.499 65.2024 134.512 65.1451 134.613C65.0981 134.699 65.1196 134.846 65.2151 134.889C65.7799 135.143 66.3446 135.398 66.9101 135.653C67.0049 135.696 67.1164 135.682 67.1737 135.581Z" fill="#A587FF"/>
<path d="M65.8657 133.456C65.7628 133.475 65.705 133.606 65.7307 133.703C65.7612 133.817 65.8649 133.863 65.9677 133.844C66.4715 133.753 66.9961 133.881 67.4195 134.175C67.5063 134.235 67.6324 134.193 67.683 134.103C67.7377 134.004 67.7007 133.889 67.6139 133.828C67.1005 133.471 66.4698 133.347 65.8657 133.456Z" fill="#A587FF"/>
</g>
<defs>
<clipPath id="clip0_716_1690">
<rect width="96" height="175" fill="white"/>
</clipPath>
</defs>
</svg>
