<svg width="25" height="25" viewBox="0 0 25 25" fill="none" xmlns="http://www.w3.org/2000/svg">
<g clip-path="url(#clip0_654_7009)">
<path fill-rule="evenodd" clip-rule="evenodd" d="M12.9552 10.7222L13.0177 9.82736C13.0355 9.47272 12.9457 9.12098 12.76 8.81833C12.5742 8.51568 12.3013 8.27627 11.9771 8.13153C11.1345 7.86738 10.2588 7.7236 9.37604 7.70444C8.73992 7.62586 8.09654 7.62586 7.46042 7.70444C6.96562 7.77215 6.50208 7.98569 6.12917 8.31903C5.88629 8.55545 5.71329 8.85424 5.62917 9.18257C5.5186 9.72303 5.48007 10.2757 5.51458 10.8263C4.47396 10.8263 3.37083 10.9201 2.29896 10.9201C2.21884 10.9201 2.142 10.9519 2.08535 11.0085C2.0287 11.0652 1.99688 11.142 1.99688 11.2222C1.99688 11.3023 2.0287 11.3791 2.08535 11.4358C2.142 11.4924 2.21884 11.5242 2.29896 11.5242C4.51562 11.6805 6.74271 11.7847 8.98021 11.8159H15.6094C16.7125 11.8159 17.524 11.9305 18.4813 12.0336C18.6354 12.6982 18.6844 13.3826 18.6271 14.0628C18.6579 14.8222 18.4012 15.5654 17.9083 16.144C17.5429 16.2835 17.1557 16.3575 16.7646 16.3628L15.0156 16.5399L11.6656 16.8107V16.4461C11.6103 16.1106 11.4634 15.7969 11.2409 15.5397C11.0185 15.2825 10.7292 15.0919 10.4052 14.9888C10.082 14.8875 9.73566 14.8871 9.41223 14.9876C9.0888 15.0881 8.80367 15.2847 8.59479 15.5513C8.32031 15.9012 8.14411 16.3179 8.08437 16.7586V16.8732C7.31458 16.8107 5.68125 16.7274 4.21354 16.5503C3.69549 16.5003 3.18229 16.4204 2.67396 16.3107C2.40743 16.2752 2.15165 16.1829 1.92396 16.0399C1.46979 15.6857 1.17396 15.1649 1.10208 14.594C1.01356 13.6304 1.03103 12.6601 1.15417 11.7003C1.1654 11.6585 1.16753 11.6148 1.16042 11.5722C1.15332 11.5295 1.13713 11.4889 1.11297 11.453C1.0888 11.4172 1.05722 11.3869 1.02035 11.3643C0.983484 11.3417 0.942193 11.3273 0.899271 11.322C0.856348 11.3167 0.812793 11.3207 0.771552 11.3337C0.730311 11.3468 0.692344 11.3685 0.660219 11.3974C0.628094 11.4264 0.60256 11.4619 0.585342 11.5015C0.568124 11.5412 0.559624 11.5841 0.560417 11.6274C0.306856 12.6318 0.171219 13.6624 0.15625 14.6982C0.165625 15.5055 0.485417 16.2774 1.05208 16.8524C1.72917 17.2794 2.50937 17.5159 3.30937 17.5399C4.8566 17.6253 6.40382 17.6253 7.95104 17.5399C7.96493 17.8572 7.99618 18.1728 8.04479 18.4867C8.05521 18.5659 8.09557 18.6381 8.15756 18.6885C8.21955 18.7389 8.29848 18.7636 8.37813 18.7576C8.45455 18.7472 8.52411 18.7079 8.57253 18.6479C8.62095 18.5878 8.64457 18.5115 8.63854 18.4347C8.614 18 8.63495 17.5639 8.70104 17.1336C8.75104 16.769 8.92292 16.4315 9.18958 16.1763C9.28584 16.0767 9.40994 16.0085 9.54563 15.9806C9.68132 15.9527 9.82226 15.9665 9.95 16.0201C10.0767 16.0653 10.1884 16.1447 10.2728 16.2495C10.3572 16.3543 10.411 16.4804 10.4281 16.6138C10.4281 16.7909 10.4802 16.9784 10.501 17.1763C10.5323 17.4638 10.5323 17.7513 10.501 18.0388C10.4648 18.3278 10.3652 18.6052 10.2094 18.8513C10.0719 19.0253 9.89687 19.1669 9.69896 19.268C9.62777 19.3197 9.54598 19.3549 9.45951 19.3711C9.37304 19.3873 9.28404 19.3841 9.19896 19.3617C9.14988 19.3325 9.10733 19.2935 9.07396 19.2472C9.01744 19.1561 8.96563 19.0623 8.91875 18.9659C8.88812 18.8804 8.82492 18.8106 8.74295 18.7715C8.66098 18.7325 8.56691 18.7275 8.48125 18.7576C8.44048 18.7755 8.40373 18.8015 8.37317 18.8339C8.34261 18.8664 8.31886 18.9046 8.30332 18.9463C8.28778 18.9881 8.28077 19.0325 8.28271 19.077C8.28464 19.1216 8.29548 19.1652 8.31458 19.2055C8.36528 19.3659 8.43472 19.5183 8.52292 19.6628C8.60625 19.7878 8.71042 19.8919 8.83542 19.9753C8.99197 20.0652 9.16615 20.1201 9.34597 20.1363C9.52579 20.1525 9.70699 20.1296 9.87708 20.069C10.3022 19.9533 10.6871 19.7226 10.9896 19.4024C11.2833 19.0597 11.4844 18.6482 11.5729 18.2055C11.6306 17.9527 11.6618 17.6961 11.6667 17.4357C12.7594 17.4357 14.6219 17.5607 16.1198 17.4357C16.9833 17.453 17.8389 17.2675 18.6177 16.894C19.1854 16.2586 19.5 15.4357 19.5031 14.5847C19.7833 10.7128 18.9094 11.0149 12.9562 10.7232M8.25312 10.7232L6.10937 10.8065C6.14062 10.419 6.2066 10.0374 6.30729 9.66174C6.36562 9.42215 6.50104 9.20549 6.69271 9.04715C6.95417 8.88569 7.25729 8.79924 7.56562 8.79819C8.12568 8.77285 8.68688 8.80075 9.24167 8.88153H10.2823C10.724 8.85549 11.1667 8.90132 11.5938 9.01694C11.7833 9.07589 11.9504 9.19103 12.073 9.3471C12.1956 9.50318 12.2678 9.69282 12.2802 9.8909V10.6826C10.9382 10.6425 9.59533 10.6391 8.25312 10.6722V10.7232Z" fill="white"/>
<path fill-rule="evenodd" clip-rule="evenodd" d="M17.7632 17.7157C17.7194 17.7143 17.6758 17.7216 17.6348 17.737C17.5938 17.7525 17.5563 17.7759 17.5244 17.8059C17.4924 17.8359 17.4667 17.8719 17.4487 17.9118C17.4307 17.9518 17.4208 17.9948 17.4194 18.0386L17.2111 21.847C17.2267 22.2063 17.1955 22.5667 17.1173 22.9188C17.0852 23.0944 16.9976 23.2551 16.8673 23.3772C16.56 23.5917 16.2007 23.724 15.8277 23.7626C15.187 23.861 14.5396 23.9094 13.8913 23.9074H11.3746C9.38712 23.8345 7.38816 23.699 5.39025 23.6886C4.61039 23.7365 3.82983 23.7365 3.04858 23.6886C2.61266 23.6785 2.19228 23.5247 1.85275 23.2511C1.73948 23.1321 1.66974 22.9783 1.65483 22.8147C1.62009 22.4687 1.62009 22.12 1.65483 21.774V17.8615C1.6644 17.8219 1.66607 17.7807 1.65974 17.7404C1.6534 17.7001 1.63919 17.6614 1.61791 17.6266C1.59663 17.5918 1.5687 17.5615 1.53571 17.5374C1.50273 17.5134 1.46533 17.4961 1.42566 17.4865C1.38599 17.477 1.34483 17.4753 1.30451 17.4816C1.2642 17.488 1.22552 17.5022 1.1907 17.5235C1.15588 17.5447 1.12559 17.5727 1.10156 17.6057C1.07753 17.6386 1.06024 17.676 1.05066 17.7157L0.87358 21.7011C0.821496 22.106 0.807607 22.5119 0.831913 22.9188C0.860038 23.2657 0.99858 23.5938 1.22775 23.8563C1.5767 24.2084 2.0215 24.4511 2.50795 24.5522C3.46629 24.7209 4.4392 24.7907 5.41108 24.7605C7.38816 24.7605 9.3767 24.9584 11.3642 25.0001H13.9652C14.6642 24.9772 15.3611 24.8959 16.0465 24.7605C16.5695 24.6642 17.0601 24.4386 17.4736 24.1042C17.7361 23.8511 17.9111 23.5188 17.9725 23.1584C18.042 22.7279 18.0663 22.2938 18.0455 21.8563V18.0792C18.0545 17.994 18.0303 17.9085 17.9779 17.8406C17.9255 17.7727 17.849 17.7276 17.7642 17.7147M24.5382 5.38341C24.2465 4.71675 23.7882 4.0407 23.4965 3.50008C23.309 3.1355 23.1319 2.6355 22.8934 2.23029C22.7636 2.0009 22.5984 1.79348 22.4038 1.6157C22.0647 1.36584 21.6738 1.19532 21.26 1.11675C20.4684 0.939663 19.459 0.897996 18.9705 0.79383C18.1684 0.627163 17.3882 0.377163 16.5871 0.210496C16.2172 0.122775 15.8416 0.0604771 15.4632 0.024038C15.1375 -0.00671059 14.8097 -0.00671059 14.484 0.024038C14.2736 0.0448714 14.0715 0.12508 13.9017 0.253205C13.7072 0.41388 13.5777 0.639659 13.5371 0.888621C13.4121 1.40841 13.4017 2.26154 13.3288 2.54279C13.1753 3.07473 12.9812 3.5914 12.7465 4.09279C12.3715 4.86362 11.935 5.60216 11.4986 6.31987C11.4772 6.35195 11.4623 6.38796 11.4549 6.42581C11.4475 6.46366 11.4477 6.50261 11.4555 6.54039C11.4632 6.57817 11.4784 6.61404 11.5001 6.64592C11.5218 6.6778 11.5496 6.70506 11.5819 6.72612C11.6483 6.7699 11.7294 6.7857 11.8074 6.7701C11.8854 6.75449 11.9541 6.70875 11.9986 6.64279C12.4767 5.92404 12.9652 5.1855 13.3819 4.40529C13.6632 3.88029 13.8993 3.33584 14.0902 2.77195L14.4642 0.98133H15.3705C15.7003 1.01744 16.026 1.07994 16.3475 1.16883C17.1496 1.36675 17.9298 1.63758 18.7205 1.8355C19.1475 1.92925 19.9694 1.98133 20.6975 2.11675C20.9024 2.15008 21.1038 2.19834 21.3017 2.26154C21.208 2.48029 21.1142 2.69904 21.01 2.90737C20.8225 3.3032 20.6246 3.67716 20.4059 4.05112C20.1871 4.42508 20.0725 4.59279 19.9371 4.86362C19.8052 5.11891 19.7275 5.39874 19.709 5.6855C19.699 5.97919 19.7911 6.26726 19.9697 6.50068C20.1482 6.7341 20.4021 6.89843 20.6882 6.9657L21.3017 7.10112H22.4246L23.758 6.91362C23.758 6.99695 23.758 7.0907 23.685 7.18445C23.5288 7.65216 23.2996 8.15216 23.1955 8.48446C22.7982 9.85487 22.3185 11.2 21.759 12.5126C21.3799 13.3627 20.9381 14.1833 20.4371 14.9678C20.406 15.0139 20.3867 15.0671 20.3812 15.1225C20.3756 15.1779 20.3839 15.2338 20.4053 15.2852C20.4266 15.3366 20.4604 15.3819 20.5036 15.4171C20.5468 15.4522 20.5981 15.4761 20.6527 15.4865C20.7183 15.5002 20.7865 15.4938 20.8484 15.4682C20.9102 15.4425 20.9629 15.3988 20.9996 15.3428C21.5552 14.547 22.0409 13.7108 22.4569 12.8345C23.0856 11.5372 23.6346 10.2028 24.1007 8.83862C24.2361 8.4532 24.5486 7.85945 24.7152 7.32925C24.8173 7.04279 24.86 6.73862 24.8402 6.43445C24.7946 6.07058 24.6927 5.71601 24.5382 5.38341ZM22.3944 6.26883L21.4673 6.16466L21.1027 6.02925C20.9361 5.95633 20.8434 5.90425 20.8434 5.80008C20.8642 5.59904 20.9236 5.40425 21.0205 5.22716C21.135 4.98758 21.2496 4.72716 21.3434 4.48862C21.4371 4.24904 21.583 3.81154 21.6871 3.44695C21.7913 3.08341 21.8225 2.96883 21.884 2.73029C21.884 2.78237 21.9569 2.83445 21.9882 2.89695C22.1757 3.27195 22.3423 3.68758 22.509 3.93654C22.6757 4.18654 23.1434 4.9782 23.435 5.47716C23.5434 5.67855 23.6371 5.88688 23.7163 6.10216L22.3944 6.26883ZM6.67983 7.30841C6.66703 7.34599 6.66205 7.38578 6.66517 7.42536C6.66829 7.46493 6.67946 7.50345 6.69798 7.53856C6.71651 7.57367 6.74201 7.60462 6.77292 7.62953C6.80383 7.65444 6.8395 7.67277 6.87775 7.68341C6.91855 7.70611 6.96437 7.71829 7.01106 7.71886C7.05776 7.71942 7.10386 7.70835 7.1452 7.68665C7.18654 7.66494 7.22183 7.63328 7.24788 7.59453C7.27393 7.55577 7.28992 7.51114 7.29441 7.46466C7.57278 6.76255 7.77837 6.03374 7.90795 5.28966C8.00795 4.55077 8.07045 3.80841 8.09545 3.06258C8.09545 2.90633 7.92879 2.39591 7.90795 2.08445C9.06282 2.1414 10.2111 2.25945 11.3527 2.43862C11.4411 2.45727 11.5332 2.44041 11.6092 2.39168C11.6853 2.34295 11.7391 2.26627 11.759 2.1782C11.7663 2.13222 11.7642 2.08523 11.7529 2.04008C11.7415 1.99492 11.721 1.95256 11.6928 1.91554C11.6645 1.87852 11.6291 1.84763 11.5885 1.82474C11.548 1.80185 11.5032 1.78743 11.4569 1.78237C10.2798 1.4525 9.08434 1.19198 7.8767 1.00216C7.71134 0.976549 7.54218 0.993739 7.38535 1.05209C7.22852 1.11045 7.08927 1.20802 6.98087 1.3355C6.90206 1.49804 6.85942 1.67573 6.85587 1.85633C6.85587 2.2407 6.91837 2.81362 6.85587 3.04175C6.91559 3.89869 6.91559 4.75563 6.85587 5.61258C6.8399 6.18202 6.78122 6.7473 6.67983 7.30841Z" fill="white"/>
<path fill-rule="evenodd" clip-rule="evenodd" d="M16.4727 4.61369C16.7477 4.73314 17.029 4.83731 17.3165 4.92619C17.7529 5.07203 18.1894 5.16578 18.606 5.32203C18.6802 5.36713 18.7686 5.38254 18.8536 5.36515C18.9386 5.34776 19.0139 5.29887 19.0644 5.22828C19.0862 5.18944 19.1 5.14661 19.105 5.10234C19.11 5.05807 19.1061 5.01324 19.0935 4.97051C19.0808 4.92778 19.0598 4.88802 19.0315 4.85357C19.0033 4.81912 18.9684 4.79068 18.929 4.76994C18.5641 4.48345 18.1775 4.22573 17.7727 3.99911C17.6024 3.89987 17.4252 3.81285 17.2425 3.73869C17.057 3.67028 16.8694 3.60775 16.68 3.55119C16.2227 3.43661 15.7758 3.39599 15.3279 3.32307C15.2573 3.31046 15.1846 3.32336 15.1226 3.35947C15.0607 3.39558 15.0136 3.45255 14.9898 3.52018C14.966 3.58781 14.9671 3.6617 14.9927 3.72864C15.0184 3.79558 15.0671 3.85121 15.13 3.88557C15.6196 4.0939 15.9946 4.38557 16.4727 4.61369ZM14.0373 6.06057C14.0307 6.13715 14.0525 6.21349 14.0986 6.27498C14.1448 6.33648 14.2119 6.37881 14.2873 6.3939C14.7942 6.56404 15.2904 6.76161 15.7758 6.98661C16.1161 7.12272 16.463 7.24078 16.8165 7.34078C17.3998 7.52828 17.9925 7.65224 18.606 7.78765C18.647 7.80412 18.6908 7.81203 18.7349 7.8109C18.779 7.80977 18.8224 7.79962 18.8624 7.78108C18.9024 7.76254 18.9382 7.73599 18.9676 7.70308C18.9969 7.67017 19.0192 7.6316 19.0331 7.58974C19.0497 7.54809 19.0578 7.50353 19.0567 7.45871C19.0557 7.4139 19.0457 7.36975 19.0272 7.3289C19.0087 7.28806 18.9822 7.25136 18.9492 7.221C18.9162 7.19065 18.8774 7.16726 18.8352 7.15224C18.3248 6.90224 17.8665 6.62203 17.3779 6.38244C17.0435 6.21981 16.6953 6.08734 16.3373 5.98661C15.7094 5.84441 15.0662 5.78142 14.4227 5.79911C14.3801 5.78456 14.3346 5.78009 14.2899 5.78606C14.2453 5.79202 14.2026 5.80825 14.1653 5.83349C14.1279 5.85872 14.0969 5.89226 14.0747 5.93148C14.0525 5.9707 14.0397 6.01557 14.0373 6.06057Z" fill="white"/>
</g>
<defs>
<clipPath id="clip0_654_7009">
<rect width="25" height="25" fill="white"/>
</clipPath>
</defs>
</svg>
