<svg width="24" height="24" viewBox="0 0 24 24" fill="none" xmlns="http://www.w3.org/2000/svg">
<path d="M1.5 4H5M5 4C5 4.66304 5.26339 5.29893 5.73223 5.76777C6.20107 6.23661 6.83696 6.5 7.5 6.5C8.16304 6.5 8.79893 6.23661 9.26777 5.76777C9.73661 5.29893 10 4.66304 10 4M5 4C5 3.33696 5.26339 2.70107 5.73223 2.23223C6.20107 1.76339 6.83696 1.5 7.5 1.5C8.16304 1.5 8.79893 1.76339 9.26777 2.23223C9.73661 2.70107 10 3.33696 10 4M17.5 12C18.5609 12 19.5783 11.5786 20.3284 10.8284C21.0786 10.0783 21.5 9.06087 21.5 8C21.5 6.93913 21.0786 5.92172 20.3284 5.17157C19.5783 4.42143 18.5609 4 17.5 4H10M6.5 20C5.43913 20 4.42172 19.5786 3.67157 18.8284C2.92143 18.0783 2.5 17.0609 2.5 16C2.5 14.9391 2.92143 13.9217 3.67157 13.1716C4.42172 12.4214 5.43913 12 6.5 12H12.5M11.5 20H17.5" stroke="white" stroke-width="1.5" stroke-linecap="round" stroke-linejoin="round"/>
<path d="M6.5 20C6.5 20.663 6.76339 21.2989 7.23223 21.7678C7.70107 22.2366 8.33696 22.5 9 22.5C9.66304 22.5 10.2989 22.2366 10.7678 21.7678C11.2366 21.2989 11.5 20.663 11.5 20C11.5 19.337 11.2366 18.7011 10.7678 18.2322C10.2989 17.7634 9.66304 17.5 9 17.5C8.33696 17.5 7.70107 17.7634 7.23223 18.2322C6.76339 18.7011 6.5 19.337 6.5 20ZM12.5 12C12.5 12.663 12.7634 13.2989 13.2322 13.7678C13.7011 14.2366 14.337 14.5 15 14.5C15.663 14.5 16.2989 14.2366 16.7678 13.7678C17.2366 13.2989 17.5 12.663 17.5 12C17.5 11.337 17.2366 10.7011 16.7678 10.2322C16.2989 9.76339 15.663 9.5 15 9.5C14.337 9.5 13.7011 9.76339 13.2322 10.2322C12.7634 10.7011 12.5 11.337 12.5 12ZM17.6345 22.204C17.6745 22.451 17.912 22.567 18.143 22.4715C18.5515 22.3025 19.2795 21.973 20.3825 21.3775C21.121 20.9785 21.6075 20.6595 21.925 20.4195C22.3215 20.1205 22.322 19.6345 21.925 19.335C21.6075 19.095 21.121 18.776 20.3825 18.3775C19.2795 17.7825 18.5515 17.4525 18.143 17.2835C17.912 17.1875 17.675 17.304 17.6345 17.551C17.5705 17.939 17.5 18.646 17.5 19.8775C17.5 21.109 17.5705 21.816 17.6345 22.204Z" stroke="white" stroke-width="1.5" stroke-linecap="round" stroke-linejoin="round"/>
</svg>
